<svg width="15" height="22" viewBox="0 0 15 22" fill="none" xmlns="http://www.w3.org/2000/svg">
<path fill-rule="evenodd" clip-rule="evenodd" d="M10.4245 15H4.25469V13.9505C4.25469 13.5785 4.04491 13.2364 3.69362 13.0354C1.50257 11.7816 0.141479 9.46901 0.141479 7.00001C0.141479 5.07826 0.926074 3.28626 2.35079 1.95388C3.77498 0.622135 5.64752 -0.0701151 7.62777 0.00550988C11.2934 0.145135 14.3237 3.04338 14.5264 6.60351C14.677 9.24788 13.31 11.7181 10.9592 13.0503C10.6294 13.2371 10.4245 13.5819 10.4245 13.9499V15ZM4.25469 19H10.4245V17H4.25469V19ZM9.3962 22H5.28299V20H9.3962V22Z" fill="#FFDC32"/>
</svg>
